<?xml version="1.0" standalone="no"?>
<!DOCTYPE svg PUBLIC "-//W3C//DTD SVG 20010904//EN"
 "http://www.w3.org/TR/2001/REC-SVG-20010904/DTD/svg10.dtd">
<svg version="1.0" xmlns="http://www.w3.org/2000/svg"
 width="226.000000pt" height="226.000000pt" viewBox="0 0 226.000000 226.000000"
 preserveAspectRatio="xMidYMid meet">
<metadata>
Created by potrace 1.11, written by Peter Selinger 2001-2013
</metadata>
<g transform="translate(0.000000,226.000000) scale(0.100000,-0.100000)"
fill="#000000" stroke="none">
<path d="M976 1414 c-11 -28 11 -41 64 -39 l50 2 0 -249 0 -250 -42 2 c-74 3
-78 2 -78 -25 l0 -25 155 0 155 0 0 25 c0 27 -4 28 -77 26 l-43 -1 0 275 0
275 -89 0 c-73 0 -90 -3 -95 -16z"/>
<path d="M1429 1425 c-10 -44 -4 -50 48 -50 28 0 54 -3 57 -6 5 -4 9 -304 6
-462 0 -26 -3 -28 -32 -27 -77 4 -88 1 -88 -25 l0 -25 155 0 155 0 0 25 c0 27
-3 28 -72 26 l-48 -2 0 276 0 275 -90 0 c-49 0 -90 -2 -91 -5z"/>
<path d="M370 1320 c-19 -11 -102 -55 -185 -98 -205 -108 -206 -98 27 -232
100 -58 187 -106 193 -108 7 -2 11 10 11 28 -1 34 18 21 -243 167 -35 19 -63
38 -62 41 0 4 67 41 150 82 146 74 149 76 149 108 0 17 -1 32 -2 32 -2 -1 -19
-10 -38 -20z"/>
<path d="M1840 1307 c0 -32 3 -34 150 -107 82 -41 150 -78 150 -82 0 -3 -30
-23 -67 -44 -38 -21 -84 -46 -103 -57 -19 -11 -57 -33 -84 -48 -42 -23 -50
-33 -52 -59 -2 -21 2 -30 10 -28 7 2 95 50 195 108 160 92 181 108 179 128 -3
25 -13 31 -250 155 l-128 66 0 -32z"/>
<path d="M625 1231 c-85 -40 -119 -95 -120 -196 0 -56 5 -78 24 -112 61 -106
199 -133 299 -60 l31 23 -21 21 -20 21 -36 -24 c-93 -63 -212 12 -212 134 0
91 52 152 130 152 56 0 110 -30 110 -62 0 -7 12 0 26 16 24 27 24 29 7 49 -48
53 -147 71 -218 38z"/>
</g>
</svg>
